<svg xmlns="http://www.w3.org/2000/svg" fill="currentColor" stroke-width="0" viewBox="0 0 512 512" height="1em" width="1em" viewBox="0 0 512 448.024">
  <path d="M270.5,405.588c-4.6-4-9.2-8.1-13.6-12.4-3.5,3.4-7,6.6-10.5,9.7-44.2,38.7-89.6,54.7-116.6,39.1-26.2-15.1-34.4-59.1-23.9-114.6,1.2-6.1,2.5-12,4-18-4.6-1.3-9.1-2.8-13.6-4.3-55.5-19-96.3-50.3-96.3-81.5,0-30.2,38.3-59.4,91.7-77.9,5.9-2.1,12.2-4.1,18.6-5.9-1.4-5.6-2.6-11.1-3.7-16.7-11-56.4-3.2-101.5,23-116.7,27.3-15.9,72.9,1.1,118.4,41.5,2.8,2.5,5.6,5.1,8.3,7.7,4-3.9,8.2-7.8,12.5-11.5,43.4-37.8,86.3-53.5,112.6-38.4,27.3,15.8,35.4,63.7,23.1,123.3-.8,3.7-1.6,7.4-2.5,11.1q8.1,2.4,16.2,5.1c54.4,18.7,93.8,48.1,93.8,78.4,0,31.7-41.8,62.6-99.5,81.7-3.1,1-6.2,2-9.4,2.9q1.65,6.9,3,13.5c11.4,57.6,2.6,104.9-24.4,120.5a46.18,46.18,0,0,1-23.454,5.837C333.5,448.023,302.135,432.788,270.5,405.588Zm43.6-81.3a494.673,494.673,0,0,1-42.2,53.6c4.3,4,8.5,7.9,12.7,11.5,36.6,31.4,70.5,43.4,86.4,34.2a44.443,44.443,0,0,0,16.5-31.3,182.314,182.314,0,0,0-2.5-66.3c-.8-4-1.7-8.1-2.7-12.2A493.048,493.048,0,0,1,314.1,324.287Zm-187,6.9c-9,47.5-2.4,82.8,13.5,92a44.26,44.26,0,0,0,35.3-1.3,183.03,183.03,0,0,0,56.4-35.3c3.2-2.8,6.4-5.8,9.6-8.9a527.687,527.687,0,0,1-43.2-53.4,500.189,500.189,0,0,1-67.9-9.8C129.4,319.988,128.2,325.588,127.1,331.187Zm129.7,31.1a431.186,431.186,0,0,0,29.6-36.4c-10,.5-20.1.7-30.4.7-10,0-19.9-.2-29.5-.6C236.4,339.088,246.6,351.287,256.8,362.288Zm-71-97.6q11.551,19.95,24.6,39c14.7.9,29.9,1.4,45.6,1.4s31.2-.5,46.1-1.6c8.5-12.8,16.6-25.7,24.2-39q11.551-20.1,21.6-40.8-10.2-20.551-21.7-40.4-11.549-19.8-24.3-38.7c-14.9-1.1-30.3-1.7-45.9-1.7s-30.9.6-45.9,1.7c-8.6,12.7-16.8,25.6-24.4,38.9s-14.8,26.8-21.4,40.6h0C171,237.887,178.1,251.387,185.8,264.687Zm-49.2,29.2a453.019,453.019,0,0,0,46.4,7.5c-5.5-8.5-10.7-17.2-15.8-25.9-5-8.6-9.7-17.3-14.3-26.1A467.207,467.207,0,0,0,136.6,293.888Zm208.3-18.6c-5,8.6-10.1,17.2-15.5,25.6a439.408,439.408,0,0,0,47-8,463.866,463.866,0,0,0-16.9-44.3C354.8,257.587,350,266.487,344.9,275.288ZM98.7,165.988c-45.6,15.9-77.2,39.3-77.2,57.6a44.873,44.873,0,0,0,18.8,29.9c17.5,13.9,41.7,24.5,63,31.2,4.1,1.4,8.2,2.7,12.4,3.9a546.421,546.421,0,0,1,24.8-64.5,531.7,531.7,0,0,1-24.5-63.6C110.2,162.187,104.4,163.987,98.7,165.988Zm273,57.6a507.891,507.891,0,0,1,25.5,63.8c2.9-.8,5.7-1.7,8.5-2.6,49.9-16.5,84.8-41.8,84.8-61.4,0-18.2-32.7-42-79.3-58-4.8-1.6-9.8-3.2-15-4.7A505.346,505.346,0,0,1,371.7,223.588Zm-26.9-51c5,8.6,9.8,17.4,14.5,26.2a442.534,442.534,0,0,0,16.1-43.4,460.027,460.027,0,0,0-45.9-8Q337.45,159.837,344.8,172.588Zm-207.9-17.4c4.4,14.1,9.7,28.7,16,43.6,4.5-8.8,9.3-17.5,14.2-26,4.9-8.6,10.1-17.1,15.4-25.4C166.6,149.387,151.3,151.988,136.9,155.188Zm146-94.9c-4,3.5-7.8,7-11.7,10.7a505.337,505.337,0,0,1,42.6,53.1,511.8,511.8,0,0,1,67.3,10.6c.9-3.3,1.6-6.6,2.3-10,10.6-51.5,4.1-90.7-12.8-100.4a24.564,24.564,0,0,0-12.362-2.868C340.055,21.42,312.256,34.72,282.9,60.287Zm-142.7-35.3c-15.8,9.1-22,45.6-12.6,94,1.1,5.2,2.2,10.4,3.5,15.5a526.984,526.984,0,0,1,67.2-10.4,508.144,508.144,0,0,1,42.9-53.1c-2.6-2.4-5.1-4.8-7.6-7-31.1-27.54-60.95-42.053-80.377-42.053A25.626,25.626,0,0,0,140.2,24.988Zm145.6,97.1a439.419,439.419,0,0,0-29.6-35.8c-10,10.9-20.1,22.9-29.9,35.8q14.85-.675,29.75-.675T285.8,122.088ZM210,224.012a46,46,0,1,1,46,46A46,46,0,0,1,210,224.012Zm12.173-15.154c1.842,2.731,4.676,6.932,6.416,9.486a21.288,21.288,0,0,0,3.35,3.847l.148.134a26.74,26.74,0,0,0,5.871,4.034c2.6,1.308,6.388,3.369,9.053,4.843a5.917,5.917,0,0,1,3.053,5.189v5.937a5.935,5.935,0,0,0,1.739,4.2c2.78,2.78,4.511,7.165,4.2,9.506v5.079a37.025,37.025,0,0,0,7.911-.87l3.226-8.69c.379-1.019.6-2.08.885-3.129a4.439,4.439,0,0,1,1.145-1.986c.616-.618,1.374-1.372,2.1-2.092a8.628,8.628,0,0,0,2.544-6.117,5.653,5.653,0,0,0-1.656-4l-2.539-2.54a5.943,5.943,0,0,0-4.2-1.738H253.034c-1.745-.874-3.984-5.936-5.936-5.936a12.561,12.561,0,0,1-5.622-1.328l-2.055-1.027a2.218,2.218,0,0,1,.289-4.087l5.782-1.927a2.971,2.971,0,0,1,2.884.575l1.722,1.495a1.478,1.478,0,0,0,.971.364h1.047a1.483,1.483,0,0,0,1.326-2.147l-2.892-5.785a1.486,1.486,0,0,1,.293-1.727l1.84-1.79a1.485,1.485,0,0,1,1.035-.421h1.668a1.486,1.486,0,0,0,1.05-.434l1.484-1.484a1.485,1.485,0,0,0,0-2.1l-.87-.869a1.485,1.485,0,0,1,0-2.1l1.918-1.918.869-.868a2.966,2.966,0,0,0,0-4.2l-5.249-5.249a37.084,37.084,0,0,0-4.524.449v2.1a2.968,2.968,0,0,1-4.3,2.654l-4.453-2.227A37.3,37.3,0,0,0,222.173,208.858Zm64.562-.212a4.45,4.45,0,0,0-1.714,1.512l-3.634,5.449a4.448,4.448,0,0,0,0,4.937l3.335,5a4.449,4.449,0,0,0,2.624,1.849l5.413,1.353a35.937,35.937,0,0,0-3.617-21.307Z"/>
</svg>
